<svg width="375" height="304" viewBox="0 0 375 304" fill="none" xmlns="http://www.w3.org/2000/svg">
<path d="M2 2H44.3553C51.1147 2 57.0787 6.37428 59.0446 12.7737L125.351 228.61C127.317 235.01 133.281 239.384 140.04 239.384H289.435C296.46 239.384 302.59 234.666 304.317 227.928L331.066 123.602C332.793 116.864 338.924 112.146 345.948 112.146H372.386" stroke="black" stroke-width="3.75648" stroke-linecap="round"/>
<path d="M249.859 106.498L223.196 80.1146V66.5685V66.0685H222.696H211.182H210.682V66.5685V80.1142L184.019 106.498C181.966 108.531 178.634 108.531 176.58 106.498C174.53 104.469 174.53 101.182 176.58 99.1524C176.58 99.1524 176.58 99.1524 176.58 99.1524L213.22 62.8952C215.273 60.8635 218.605 60.8635 220.658 62.8952L257.297 99.1524C259.348 101.182 259.348 104.469 257.297 106.498C255.244 108.531 251.912 108.531 249.859 106.498ZM211.682 172.417V80.5315L216.939 75.3293L222.196 80.5319V172.417H211.682ZM211.682 79.1246V67.0685H222.196V79.1251L217.29 74.2704L216.939 73.9224L216.587 74.2704L211.682 79.1246Z" fill="white" stroke="black"/>
<path d="M176.638 302.054C186.177 302.054 193.91 294.401 193.91 284.962C193.91 275.522 186.177 267.87 176.638 267.87C167.099 267.87 159.366 275.522 159.366 284.962C159.366 294.401 167.099 302.054 176.638 302.054Z" stroke="black" stroke-width="3.00518"/>
<path d="M261.078 302.054C270.617 302.054 278.35 294.401 278.35 284.962C278.35 275.522 270.617 267.87 261.078 267.87C251.539 267.87 243.806 275.522 243.806 284.962C243.806 294.401 251.539 302.054 261.078 302.054Z" stroke="black" stroke-width="3.00518"/>
</svg>
